<svg id="visual" viewBox="0 0 900 600" width="900" height="600" xmlns="http://www.w3.org/2000/svg" xmlns:xlink="http://www.w3.org/1999/xlink" version="1.1"><path d="M0 529L30 529.2C60 529.3 120 529.7 180 529.5C240 529.3 300 528.7 360 521C420 513.3 480 498.7 540 497.3C600 496 660 508 720 511.3C780 514.7 840 509.3 870 506.7L900 504L900 601L870 601C840 601 780 601 720 601C660 601 600 601 540 601C480 601 420 601 360 601C300 601 240 601 180 601C120 601 60 601 30 601L0 601Z" fill="#0066FF" stroke-linecap="round" stroke-linejoin="miter"></path></svg>